<svg xmlns="http://www.w3.org/2000/svg" width="22" height="20" viewBox="0 0 22 20">
    <path fill="#FFF" fill-rule="nonzero" d="M21.933 7.544a1.362 1.362 0 0 0-1.11-.89l-5.934-.82L12.235.73A1.385 1.385 0 0 0 11 0c-.524 0-1.003.283-1.235.73L7.113 5.834l-5.933.818c-.52.071-.95.416-1.113.89-.162.474-.026.994.35 1.34l4.294 3.975-1.014 5.613c-.068.38.044.768.305 1.063a1.43 1.43 0 0 0 1.691.315L11 17.199l5.307 2.65a1.433 1.433 0 0 0 1.45-.1c.423-.292.636-.788.547-1.278l-1.013-5.613 4.294-3.974c.374-.347.51-.867.348-1.34z"/>
</svg>
